Coordinates
version=1
nRows=11
nColumns=36
inDegrees=yes

Units are S.I. units (second, meters, Newtons, ...)
If the header above contains a line with 'inDegrees', this indicates whether rotational values are in degrees (yes) or radians (no).

endheader
time	pelvis_tilt	pelvis_list	pelvis_rotation	pelvis_tx	pelvis_ty	pelvis_tz	hip_flexion_r	hip_adduction_r	hip_rotation_r	knee_angle_r	knee_angle_r_beta	ankle_angle_r	subtalar_angle_r	mtp_angle_r	hip_flexion_l	hip_adduction_l	hip_rotation_l	knee_angle_l	knee_angle_l_beta	ankle_angle_l	subtalar_angle_l	mtp_angle_l	lumbar_extension	lumbar_bending	lumbar_rotation	arm_flex_r	arm_add_r	arm_rot_r	elbow_flex_r	pro_sup_r	arm_flex_l	arm_add_l	arm_rot_l	elbow_flex_l	pro_sup_l
      4.45000000	     -1.74991188	      1.75471666	     -3.49192082	      0.97403563	      0.93214046	     -0.01738452	     -2.95196640	     -1.96568382	      4.41322846	      0.33148849	      0.00578557	      7.69404669	     -6.69607732	     -7.49999987	     -1.41113259	     -3.30124641	      2.01706261	      1.13693950	      0.01984334	      4.52246527	     -5.20498079	     -7.49999987	     -9.59046240	      0.02082795	      0.10953742	      6.69024391	    -11.70802159	     10.71222528	     20.48172343	     81.59542296	      4.46530673	    -10.14902408	     13.21802626	     19.54881893	     74.15320516
      4.46666670	     -1.68743871	      1.54336350	     -4.39263746	      0.97115404	      0.93503195	     -0.01806761	     -2.86500002	     -1.93165990	      5.06080684	      0.34370292	      0.00599875	      7.67284192	     -6.29046627	     -7.49999987	     -1.52335321	     -3.43635915	      1.63227469	      1.33582567	      0.02331456	      4.61749833	     -5.33025495	     -7.49999987	     -9.16439091	      0.10701763	      0.03267563	      6.76792606	    -11.63625254	      9.89358932	     20.36889811	     79.79020452	      4.13871731	    -10.25626943	     12.34317088	     19.05152228	     72.62802041
      4.48333330	     -1.60661729	      1.32308954	     -5.58312739	      0.96804725	      0.93505766	     -0.01779397	     -2.63007034	     -1.87236455	      6.44641035	      0.36683115	      0.00640241	      7.44155313	     -6.62159797	     -7.49999987	     -1.59080270	     -3.55034340	      1.50478422	      1.70417375	      0.02974344	      4.47437324	     -6.51314850	     -7.49999987	     -8.95578474	      0.20303831	      0.04891102	      6.79610168	    -11.67451550	      9.66826626	     20.87042406	     78.63183636	      3.65943017	    -10.41797969	     11.59257980	     18.94572332	     71.01251076
      4.50000000	     -1.65150073	      1.20241403	     -6.72040812	      0.96219891	      0.94545400	     -0.01771994	     -2.11122388	     -1.88764039	      7.46493635	      0.41624107	      0.00726478	      7.16884854	     -6.26088120	     -7.49999987	     -1.17774564	     -3.58097218	      1.32335738	      2.32644159	      0.04060407	      4.11596669	     -7.26650962	     -7.49999987	     -8.81431135	      0.21303002	     -0.28042902	      7.15432789	    -11.48327234	      9.71623129	     21.06235067	     78.06009397	      3.52181854	    -10.65044445	     11.53026364	     18.60014844	     70.31447002
      4.51666670	     -1.41558224	      1.10856870	     -7.76319512	      0.96261295	      0.94367500	     -0.01854115	     -1.90331156	     -1.95858718	      8.41608305	      0.46028118	      0.00803342	      6.87594698	     -5.76212408	     -7.49999987	     -0.83915269	     -3.54466849	      0.94103888	      3.41249040	      0.05955919	      3.88841916	     -7.68422073	     -7.49999987	     -8.95248116	      0.11020017	     -0.57017976	      7.29545032	    -11.25827754	      9.78926751	     21.23262005	     78.11974510	      3.42261174	    -10.96308423	     11.57043076	     18.40878598	     70.28901384
      4.53333330	     -1.32950875	      1.04293236	     -9.03873045	      0.95972755	      0.94210414	     -0.02122585	     -1.48926727	     -2.07216563	      9.40083537	      0.64146881	      0.01119574	      6.66519554	     -5.41103380	     -7.49999987	     -0.05912065	     -3.50761541	      0.32771605	      5.05816218	      0.08828158	      3.88215985	     -8.55151659	     -7.49999987	     -9.22809803	      0.11878389	     -0.99721204	      7.81064933	    -11.07778838	      9.91149276	     21.59245301	     78.19875564	      3.38798337	    -11.14660681	     11.68919011	     18.17133849	     70.24948931
      4.55000000	     -2.10035996	      1.00091851	    -10.14200275	      0.95724961	      0.93955284	     -0.02175663	     -0.01028204	     -2.00719011	     10.85922242	      1.12121393	      0.01956887	      6.21394443	     -6.54199326	     -7.49999987	      2.09422321	     -3.62790079	      0.67790189	      7.64516184	      0.13343325	      3.71505140	    -10.83170585	     -7.49999987	     -8.34887399	      0.35154686	     -2.05675691	      8.38443506	    -11.09569373	     12.50601374	     21.73606684	     79.62785749	      3.16515695	    -11.69163503	     16.93412073	     17.31601608	     62.31077621
      4.56666670	     -2.46275409	      0.89422512	    -11.55940149	      0.95367719	      0.93805967	     -0.02398429	      1.14130221	     -1.91955954	     11.97430086	      1.84043168	      0.03212159	      6.37467889	     -6.47695590	     -7.49999987	      3.88762012	     -3.87828639	      0.58013231	     10.58989931	      0.18482861	      4.10187077	    -11.79616089	     -7.49999987	     -8.22358824	      0.52750823	     -2.80705156	      9.09785473	    -11.15015380	     16.20347691	     21.90978774	     74.79017784	      3.08040451	    -12.00310769	     18.30916765	     17.03350217	     61.61970217
      4.58333330	     -2.90585082	      0.79265927	    -13.08995652	      0.95168488	      0.93449200	     -0.02655051	      2.44827903	     -1.78366708	     13.17890899	      2.78206660	      0.04855622	      6.83952182	     -6.58992819	     -7.49999987	      5.89404028	     -4.27872287	      0.70124285	     14.11379817	      0.24633225	      4.89340931	    -12.32922954	     -7.49999987	     -8.00232519	      0.79612869	     -3.47635336	      9.42061216	    -11.04734692	     17.27328602	     22.56805882	     72.85685808	      2.99291331	    -12.14645738	     19.01854391	     16.75755359	     60.81261061
      4.60000000	     -3.54640362	      0.64289420	    -14.81882516	      0.94808763	      0.93061246	     -0.02811362	      4.03630117	     -1.49223660	     14.11528493	      3.85686599	      0.06731501	      7.79068456	     -6.10959173	     -7.49999987	      8.12776728	     -4.86848421	      1.30318076	     17.96183385	      0.31349314	      5.98393077	    -12.67032013	     -7.49999987	     -7.72937513	      1.24879282	     -4.07166227	      9.36111182	    -10.82772200	     15.43813800	     23.97181043	     78.95406491	      3.11890460	    -12.51170166	     22.73124332	     16.61175371	     56.09020909
      4.61666670	     -4.03913808	      0.49373444	    -16.91674565	      0.94629971	      0.92785713	     -0.03025033	      5.40479363	     -1.23687283	     15.33774680	      4.76936644	      0.08324115	      8.83018447	     -5.45407609	     -7.49999987	      9.90926448	     -5.47959501	      2.12023094	     21.52110141	      0.37561408	      7.32938332	    -12.42991804	     -7.49999987	     -7.79087565	      1.68823697	     -4.68601922	      9.27590915	    -10.63524553	     15.30223165	     25.71611843	     78.01024495	      2.79055464	    -12.74281126	     22.63723035	     17.43821490	     56.27893646
